<?xml version="1.0" encoding="UTF-8"?>
<svg width="142px" height="34px" viewBox="0 0 142 34" version="1.1" xmlns="http://www.w3.org/2000/svg" xmlns:xlink="http://www.w3.org/1999/xlink">
    <!-- Generator: Sketch 55.2 (78181) - https://sketchapp.com -->
    <title>Group 61 Copy</title>
    <desc>Created with Sketch.</desc>
    <defs>
        <polygon id="path-1" points="0 0.171181356 2.7227502 0.171181356 2.7227502 2.92258814 0 2.92258814"></polygon>
        <polygon id="path-3" points="0.0414309237 0.111623729 13.5207952 0.111623729 13.5207952 14.6725559 0.0414309237 14.6725559"></polygon>
    </defs>
    <g id="Page-1" stroke="none" stroke-width="1" fill="none" fill-rule="evenodd">
        <g id="Artboard-Copy-4" transform="translate(-50.000000, -26.000000)">
            <g id="Group-61-Copy" transform="translate(50.000000, 26.000000)">
                <path d="M16.763157,8.6440678e-05 C16.0112414,8.6440678e-05 15.401896,0.616120339 15.401896,1.37564576 C15.401896,2.13574746 16.0112414,2.75149322 16.763157,2.75149322 C17.5150727,2.75149322 18.1244181,2.13574746 18.1244181,1.37564576 C18.1244181,0.616120339 17.5150727,8.6440678e-05 16.763157,8.6440678e-05" id="Fill-1" fill="#6FC100"></path>
                <path d="M16.763157,31.0856814 C16.0112414,31.0856814 15.401896,31.7017153 15.401896,32.4615288 C15.401896,33.2213424 16.0112414,33.8370881 16.763157,33.8370881 C17.5150727,33.8370881 18.1244181,33.2213424 18.1244181,32.4615288 C18.1244181,31.7017153 17.5150727,31.0856814 16.763157,31.0856814" id="Fill-3" fill="#6FC100"></path>
                <path d="M27.6480558,7.32489661 C28.4002566,7.32489661 29.009602,6.70886271 29.009602,5.94933729 C29.009602,5.18923559 28.4002566,4.57348983 27.6480558,4.57348983 C26.8961402,4.57348983 26.2867948,5.18923559 26.2867948,5.94933729 C26.2867948,6.70886271 26.8961402,7.32489661 27.6480558,7.32489661" id="Fill-5" fill="#6FC100"></path>
                <path d="M27.6480558,26.5274339 C26.8961402,26.5274339 26.2867948,27.1434678 26.2867948,27.9032814 C26.2867948,28.6630949 26.8961402,29.2788407 27.6480558,29.2788407 C28.4002566,29.2788407 29.009602,28.6630949 29.009602,27.9032814 C29.009602,27.1434678 28.4002566,26.5274339 27.6480558,26.5274339" id="Fill-7" fill="#6FC100"></path>
                <path d="M5.88464538,26.5274339 C5.13272972,26.5274339 4.52338434,27.1434678 4.52338434,27.9032814 C4.52338434,28.6630949 5.13272972,29.2788407 5.88464538,29.2788407 C6.63656104,29.2788407 7.24590643,28.6630949 7.24590643,27.9032814 C7.24590643,27.1434678 6.63656104,26.5274339 5.88464538,26.5274339" id="Fill-9" fill="#6FC100"></path>
                <g id="Group-13" transform="translate(0.000000, 15.396525)">
                    <mask id="mask-2" fill="white">
                        <use xlink:href="#path-1"></use>
                    </mask>
                    <g id="Clip-12"></g>
                    <path d="M2.7227502,1.54674068 C2.7227502,0.786927119 2.11311968,0.171181356 1.36148916,0.171181356 C0.609573494,0.171181356 -5.70281124e-05,0.786927119 -5.70281124e-05,1.54674068 C-5.70281124e-05,2.30655424 0.609573494,2.92258814 1.36148916,2.92258814 C2.11311968,2.92258814 2.7227502,2.30655424 2.7227502,1.54674068" id="Fill-11" fill="#6FC100" mask="url(#mask-2)"></path>
                </g>
                <path d="M32.1674197,15.5675915 C31.415504,15.5675915 30.8061586,16.1836254 30.8061586,16.9431508 C30.8061586,17.7032525 31.415504,18.3189983 32.1674197,18.3189983 C32.9193353,18.3189983 33.5286807,17.7032525 33.5286807,16.9431508 C33.5286807,16.1836254 32.9193353,15.5675915 32.1674197,15.5675915" id="Fill-14" fill="#6FC100"></path>
                <path d="M5.88464538,7.28818814 C6.63656104,7.28818814 7.24590643,6.67215424 7.24590643,5.91234068 C7.24590643,5.15252712 6.63656104,4.53678136 5.88464538,4.53678136 C5.13272972,4.53678136 4.52338434,5.15252712 4.52338434,5.91234068 C4.52338434,6.67215424 5.13272972,7.28818814 5.88464538,7.28818814" id="Fill-16" fill="#6FC100"></path>
                <path d="M16.763157,4.57340339 C16.0112414,4.57340339 15.401896,5.18943729 15.401896,5.94925085 L15.401896,11.4099966 L15.4033217,11.4099966 C15.4030365,11.4223864 15.401896,11.4344881 15.401896,11.446878 C15.401896,12.2066915 16.0112414,12.8224373 16.763157,12.8224373 C17.5150727,12.8224373 18.1244181,12.2066915 18.1244181,11.446878 C18.1244181,11.4344881 18.1232775,11.4223864 18.1229924,11.4099966 L18.1244181,11.4099966 L18.1244181,5.94925085 C18.1244181,5.18943729 17.5150727,4.57340339 16.763157,4.57340339" id="Fill-18" fill="#6FC100"></path>
                <path d="M16.763157,21.0664864 C16.0112414,21.0664864 15.401896,21.6825203 15.401896,22.4423339 L15.401896,27.9033678 L15.4033217,27.9033678 C15.4030365,27.9154695 15.401896,27.9275712 15.401896,27.939961 C15.401896,28.6997746 16.0112414,29.3158085 16.763157,29.3158085 C17.5150727,29.3158085 18.1244181,28.6997746 18.1244181,27.939961 C18.1244181,27.9275712 18.1232775,27.9154695 18.1229924,27.9033678 L18.1244181,27.9033678 L18.1244181,22.4423339 C18.1244181,21.6825203 17.5150727,21.0664864 16.763157,21.0664864" id="Fill-20" fill="#6FC100"></path>
                <path d="M14.0453968,15.5688593 L5.92117189,15.5688593 L5.92117189,15.5705881 C5.90891084,15.5703 5.89693494,15.5688593 5.8846739,15.5688593 C5.13275823,15.5688593 4.52312771,16.1848932 4.52312771,16.9444186 C4.52312771,17.7045203 5.13275823,18.3202661 5.8846739,18.3202661 C5.89693494,18.3202661 5.90891084,18.3188254 5.92117189,18.3185373 L5.92117189,18.3202661 L14.0453968,18.3202661 C14.7975976,18.3202661 15.4066578,17.7045203 15.4066578,16.9444186 C15.4066578,16.1848932 14.7975976,15.5688593 14.0453968,15.5688593" id="Fill-22" fill="#6FC100"></path>
                <path d="M27.6480558,18.3203525 C28.4002566,18.3203525 29.009602,17.7043186 29.009602,16.9445051 C29.009602,16.1846915 28.4002566,15.5689458 27.6480558,15.5689458 L19.5238309,15.5689458 L19.5238309,15.5706746 C19.5115699,15.5703864 19.499594,15.5689458 19.4873329,15.5689458 C18.7354173,15.5689458 18.1257867,16.1846915 18.1257867,16.9445051 C18.1257867,17.7043186 18.7354173,18.3203525 19.4873329,18.3203525 C19.499594,18.3203525 19.5115699,18.3189119 19.5238309,18.3186237 L19.5238309,18.3203525 L27.6480558,18.3203525 Z" id="Fill-24" fill="#6FC100"></path>
                <path d="M22.2064333,12.8225525 C22.958349,12.8225525 23.5676944,12.2068068 23.5676944,11.4469932 C23.5676944,11.4346034 23.5662687,11.4225017 23.5659835,11.4101119 L23.5676944,11.4101119 L23.5676944,2.36092542 C23.5676944,1.60111186 22.958349,0.985077966 22.2064333,0.985077966 C21.4542325,0.985077966 20.8448871,1.60111186 20.8448871,2.36092542 L20.8448871,11.4101119 L20.846598,11.4101119 C20.8463129,11.4225017 20.8448871,11.4346034 20.8448871,11.4469932 C20.8448871,12.2068068 21.4542325,12.8225525 22.2064333,12.8225525" id="Fill-26" fill="#6FC100"></path>
                <path d="M11.2886863,21.0664864 C10.5367707,21.0664864 9.9274253,21.6825203 9.9274253,22.4423339 L9.9274253,31.4915203 L9.92913614,31.4915203 C9.928851,31.5039102 9.9274253,31.5157237 9.9274253,31.5284017 C9.9274253,32.2879271 10.5367707,32.903961 11.2886863,32.903961 C12.0408871,32.903961 12.6502325,32.2879271 12.6502325,31.5284017 C12.6502325,31.5157237 12.6488068,31.5039102 12.6485217,31.4915203 L12.6502325,31.4915203 L12.6502325,22.4423339 C12.6502325,21.6825203 12.0408871,21.0664864 11.2886863,21.0664864" id="Fill-28" fill="#6FC100"></path>
                <path d="M2.33376145,12.7858441 L11.2886008,12.7858441 L11.2886008,12.7841153 C11.3008618,12.7844034 11.3128378,12.7858441 11.3250988,12.7858441 C12.0770145,12.7858441 12.686645,12.1698102 12.686645,11.4099966 C12.686645,10.6501831 12.0770145,10.0344373 11.3250988,10.0344373 C11.3128378,10.0344373 11.3008618,10.035878 11.2886008,10.0361661 L11.2886008,10.0344373 L2.33376145,10.0344373 C1.58184578,10.0344373 0.972500402,10.6501831 0.972500402,11.4099966 C0.972500402,12.1698102 1.58184578,12.7858441 2.33376145,12.7858441" id="Fill-30" fill="#6FC100"></path>
                <path d="M31.1978277,21.0664864 C31.1855667,21.0664864 31.1735908,21.0679271 31.1613297,21.0685034 L31.1613297,21.0664864 L22.2064904,21.0664864 C21.4542896,21.0664864 20.844659,21.6825203 20.844659,22.4423339 C20.844659,23.2021475 21.4542896,23.8178932 22.2064904,23.8178932 L31.1613297,23.8178932 L31.1613297,23.8161644 C31.1735908,23.8164525 31.1855667,23.8178932 31.1978277,23.8178932 C31.9497434,23.8178932 32.5590888,23.2021475 32.5590888,22.4423339 C32.5590888,21.6825203 31.9497434,21.0664864 31.1978277,21.0664864" id="Fill-32" fill="#6FC100"></path>
                <path d="M11.3251558,7.32489661 C12.0770715,7.32489661 12.6864169,6.70886271 12.6864169,5.94933729 C12.6864169,5.93665932 12.6852763,5.92484576 12.6849912,5.91245593 L12.6864169,5.91245593 L12.6864169,2.36089661 C12.6864169,1.60108305 12.0770715,0.985337288 11.3251558,0.985337288 C10.5732402,0.985337288 9.96389478,1.60108305 9.96389478,2.36089661 L9.96389478,5.91245593 L9.96560562,5.91245593 C9.96503534,5.92484576 9.96389478,5.93665932 9.96389478,5.94933729 C9.96389478,6.70886271 10.5732402,7.32489661 11.3251558,7.32489661" id="Fill-34" fill="#6FC100"></path>
                <path d="M5.88213614,23.8154729 C6.63405181,23.8154729 7.24339719,23.199439 7.24339719,22.4396254 C7.24339719,21.6798119 6.63405181,21.0640661 5.88213614,21.0640661 L2.36749357,21.0640661 L2.36749357,21.0657949 C2.35523253,21.0655068 2.34354177,21.0640661 2.33128072,21.0640661 C1.57907992,21.0640661 0.969449398,21.6798119 0.969449398,22.4396254 C0.969449398,23.199439 1.57907992,23.8154729 2.33128072,23.8154729 C2.34354177,23.8154729 2.35523253,23.8140322 2.36749357,23.8134559 L2.36749357,23.8154729 L5.88213614,23.8154729 Z" id="Fill-36" fill="#6FC100"></path>
                <path d="M27.6469438,12.8225525 C27.6592048,12.8225525 27.6711807,12.8211119 27.6834418,12.8208237 L27.6834418,12.8225525 L31.1977992,12.8225525 C31.9497149,12.8225525 32.5593454,12.2068068 32.5593454,11.4469932 C32.5593454,10.6871797 31.9497149,10.0711458 31.1977992,10.0711458 L27.6834418,10.0711458 L27.6834418,10.0731627 C27.6711807,10.0728746 27.6592048,10.0711458 27.6469438,10.0711458 C26.894743,10.0711458 26.2856827,10.6871797 26.2856827,11.4469932 C26.2856827,12.2068068 26.894743,12.8225525 27.6469438,12.8225525" id="Fill-38" fill="#6FC100"></path>
                <path d="M22.2064333,26.5274339 C21.4542325,26.5274339 20.8448871,27.1434678 20.8448871,27.9032814 C20.8448871,27.9156712 20.8463129,27.9274847 20.846598,27.9398746 L20.8448871,27.9398746 L20.8448871,31.4914339 C20.8448871,32.2512475 21.4542325,32.8669932 22.2064333,32.8669932 C22.958349,32.8669932 23.5676944,32.2512475 23.5676944,31.4914339 L23.5676944,27.9398746 L23.5659835,27.9398746 C23.5662687,27.9274847 23.5676944,27.9156712 23.5676944,27.9032814 C23.5676944,27.1434678 22.958349,26.5274339 22.2064333,26.5274339" id="Fill-40" fill="#6FC100"></path>
                <path d="M55.7463771,9.5544322 C58.5684133,9.5544322 61.0753691,11.4956017 61.7069554,14.1697881 L61.7651241,14.4167203 L64.5811723,14.0332119 L64.5107426,13.731822 C63.5891683,9.79473729 59.9034414,6.93729661 55.7463771,6.93729661 C50.2075217,6.93729661 46.18761,11.1293814 46.1869163,16.9053475 C46.1742084,19.7529915 47.1619353,22.3303644 48.9677305,24.1637712 C50.7056622,25.9286017 53.1133892,26.9001949 55.7463771,26.9001949 C59.8869032,26.9001949 63.5615096,24.1735678 64.4847948,20.4165678 L64.5549394,20.130161 L61.8039032,19.5870254 L61.7348992,19.8371271 C61.0240438,22.4130593 58.5056823,24.2827712 55.7463771,24.2827712 C51.8701763,24.2827712 49.0564092,21.1804153 49.0564092,16.9056356 C49.0564092,12.6461271 51.8701763,9.5544322 55.7463771,9.5544322" id="Fill-42" fill="#002B40"></path>
                <path d="M73.8895574,24.2893119 C71.2380353,24.2893119 69.3863325,22.3124136 69.3863325,19.4817695 C69.3863325,16.7113458 71.2802361,14.7004475 73.8895574,14.7004475 C76.4988787,14.7004475 78.3924972,16.7113458 78.3924972,19.4817695 C78.3924972,22.2674644 76.4988787,24.2893119 73.8895574,24.2893119 M73.8895574,12.2115322 C69.6683365,12.2115322 66.7199831,15.2012271 66.7199831,19.4817695 C66.7199831,23.7778712 69.6683365,26.777939 73.8895574,26.777939 C78.0434851,26.777939 81.0591317,23.7095831 81.0591317,19.4817695 C81.0591317,15.2692271 78.0434851,12.2115322 73.8895574,12.2115322" id="Fill-44" fill="#002B40"></path>
                <path d="M98.6998373,7.1421322 C97.7756968,7.1421322 97.104761,7.80081017 97.104761,8.70843729 C97.104761,9.64228475 97.7756968,10.3202678 98.6998373,10.3202678 C99.6108614,10.3202678 100.272102,9.64228475 100.272102,8.70843729 C100.272102,7.80081017 99.6108614,7.1421322 98.6998373,7.1421322" id="Fill-46" fill="#002B40"></path>
                <polygon id="Fill-48" fill="#002B40" points="97.3440225 26.4563797 100.032898 26.4563797 100.044589 12.7938542 97.3559984 12.7938542"></polygon>
                <path d="M110.408165,14.7943508 C112.982414,14.7943508 114.923651,16.8674864 114.923651,19.6163 C114.923651,22.4259102 113.024615,24.4650458 110.408165,24.4650458 C107.819374,24.4650458 105.866731,22.3803847 105.866731,19.6163 C105.866731,16.8674864 107.819374,14.7943508 110.408165,14.7943508 M110.664792,12.2844017 C108.669948,12.2844017 106.979065,13.0678424 105.943719,14.4523339 L105.943719,7.3512322 L103.254559,7.3512322 L103.254559,26.4563508 L105.943719,26.4563508 L105.943719,24.7393508 C106.992181,26.1855034 108.639438,26.9747068 110.639129,26.9747068 C114.614844,26.9747068 117.612812,23.8112661 117.612812,19.6163 C117.612812,15.4366051 114.625679,12.2844017 110.664792,12.2844017" id="Fill-50" fill="#002B40"></path>
                <path d="M83.1975434,23.8804763 L83.1975434,7.35128983 L85.8815715,7.35128983 L85.8815715,23.2108492 C85.8815715,24.0075441 86.3637442,24.1403746 86.9973265,24.1403746 L87.8501819,24.1403746 L87.8501819,26.4564085 L86.3942542,26.4564085 C84.7053667,26.4564085 83.1975434,25.8723576 83.1975434,23.8804763" id="Fill-52" fill="#002B40"></path>
                <path d="M90.0072418,23.8804763 L90.0072418,7.35128983 L92.6912699,7.35128983 L92.6912699,23.2108492 C92.6912699,24.0075441 93.1734426,24.1403746 93.8070249,24.1403746 L94.6598803,24.1403746 L94.6598803,26.4564085 L93.2039526,26.4564085 C91.5150651,26.4564085 90.0072418,25.8723576 90.0072418,23.8804763" id="Fill-54" fill="#002B40"></path>
                <path d="M125.577957,12.6585169 C124.233234,12.6585169 123.15027,13.2157712 122.407479,14.2294322 L122.407479,12.8025847 L119.769643,12.8025847 L119.769643,26.4564661 L122.458804,26.4564661 L122.458804,19.1239915 C122.458804,16.6892458 123.432559,15.2615339 125.45392,15.2615339 C126.760149,15.2615339 127.369495,15.5862627 127.369495,15.5862627 L127.369495,12.9939068 C127.369495,12.9939068 126.831435,12.6585169 125.577957,12.6585169" id="Fill-56" fill="#002B40"></path>
                <g id="Group-60" transform="translate(128.313253, 12.227034)">
                    <mask id="mask-4" fill="white">
                        <use xlink:href="#path-3"></use>
                    </mask>
                    <g id="Clip-59"></g>
                    <path d="M5.27147912,12.3179119 C3.68039478,12.3179119 2.73059157,11.6776746 2.73059157,10.605522 C2.73059157,9.05650508 4.59141888,8.49377627 6.14971205,8.29525085 L9.42825823,7.91692881 L9.42825823,8.76548814 C9.42825823,10.8570644 7.71884056,12.3179119 5.27147912,12.3179119 L5.27147912,12.3179119 Z M13.2283265,11.9416068 C12.612708,11.9416068 12.1442221,11.8110814 12.1174189,11.0740305 L12.1174189,5.29287797 C12.1174189,2.14528475 9.85283253,0.111623729 6.34845502,0.111623729 C2.90652329,0.111623729 0.682712048,2.00294576 0.682712048,4.93011525 L0.682712048,5.21306441 L3.40181245,5.21306441 L3.39753534,4.92550508 C3.3881257,4.31782712 3.57489277,3.81272542 3.95355944,3.42403051 C4.45768795,2.90653898 5.29885261,2.62157288 6.32307751,2.62157288 C8.267451,2.62157288 9.42825823,3.60094576 9.42825823,5.24101356 L9.42825823,5.50840339 L6.08641084,5.91870847 C2.24471205,6.35840339 0.0414309237,8.08577627 0.0414309237,10.6573864 C0.0414309237,13.0587085 2.02002129,14.6725559 4.96381245,14.6725559 C6.8882261,14.6725559 8.42114177,13.9680644 9.42825823,12.6288102 L9.57082851,12.6319797 C9.98342691,13.8654881 11.2428928,14.2576407 12.6249691,14.2576407 L13.5208807,14.2576407 L13.5208807,11.9416068 L13.2283265,11.9416068 Z" id="Fill-58" fill="#002B40" mask="url(#mask-4)"></path>
                </g>
            </g>
        </g>
    </g>
</svg>